<svg width="746" height="529" viewBox="0 0 746 529" fill="none" xmlns="http://www.w3.org/2000/svg">
<path d="M262 473L270 465.5L288.5 454.5C291 454.5 296 455.9 296 461.5L290 471C294.8 473.4 295.667 477 295.5 478.5L266.5 505.5L250 491.5L264 477L262 473Z" fill="white"/>
<path d="M183 392L184.222 389H173.5L175 392H183Z" fill="#CCB465" stroke="#CCB465" stroke-width="0.5"/>
<path d="M184.5 388.5H188.5L218.5 391L218 402.5V411L182.5 408.5V392L184.5 388.5Z" fill="#EFB489" stroke="#CCB465" stroke-width="0.1"/>
<path d="M193 392.5H173.5H100.5V444.5L173 446.5L239 502L264 476.5L261 473.5L269.5 465.5L221.5 409.5C216.3 403.1 200.333 395.5 193 392.5Z" fill="#A9B4FF" stroke="#A9B4FF"/>
<path d="M196 397.5C200.5 399.167 210.7 404.5 215.5 412.5L262.5 475.5" stroke="black" stroke-width="2"/>
<path d="M70 286.5H35L55 388.5H100L70 286.5Z" fill="#EFB489"/>
<path d="M70 286.5H35L55 388.5H100L70 286.5Z" fill="#EFB489"/>
<path d="M222 402.5C232.5 399.5 228 388.5 222 388.5H188C196.8 388.5 211.667 397.833 218 402.5H222Z" fill="#EFB489"/>
<path d="M222 402.5C232.5 399.5 228 388.5 222 388.5H188C196.8 388.5 211.667 397.833 218 402.5H222Z" fill="#EFB489"/>
<path d="M277 495C289 503.5 283 511.5 276 514H261L269.5 525.5H302.5L281.5 491L277 495Z" fill="#EFB489"/>
<path d="M277 495C289 503.5 283 511.5 276 514H261L269.5 525.5H302.5L281.5 491L277 495Z" fill="#EFB489"/>
<path d="M67.5 469.5L52 525.5H74C83 507.5 104.5 471.1 118.5 469.5H67.5Z" fill="#EFB489"/>
<path d="M67.5 469.5L52 525.5H74C83 507.5 104.5 471.1 118.5 469.5H67.5Z" fill="#EFB489"/>
<path d="M55 388.5L35 286.5C29.5 287.833 18.1 293.1 16.5 303.5L25 439L0 525.5H20.5C31.5 505.833 53.5 468 67.5 469.5H118.5H169.5C185.5 479 209 513.5 217.5 525.5H250L243 514H261H276C283 511.5 289 503.5 277 495L266.5 504L249 489L237.5 496.5C218.5 478.5 202 435.5 181 436.5H106C100.167 432.167 94.7 421.1 119.5 411.5L173 402C176.5 399 177.5 394.5 173 388.5H100H55Z" fill="#C16648"/>
<path d="M264 477L289 472C293 471 295.8 474.3 295 479.5L286.5 487.5M270.5 465.5L289 454.5C291.333 454.333 296 455.5 296.5 461L291.5 468" stroke="black"/>
<path d="M105.804 243.5C105.804 243.5 134.503 248.2 139.303 243C144.303 243 148.303 248 145.303 253C192.303 265 193.804 328 193.804 328C193.804 328 198.803 345.5 183.803 388H74.3035C65.3035 377.5 41.8035 327.5 69.8035 286.5C73.3035 267.5 93.3035 256.5 105.304 252.5C102.104 250.9 104.137 245.333 105.804 243.5Z" fill="#CCB465" stroke="#CCB465" stroke-width="2" stroke-linecap="round"/>
<path d="M112.5 253C118.333 255.333 131.7 258.6 138.5 253" stroke="black" stroke-width="2" stroke-linecap="round"/>
<path d="M83 340L97.5 370.5M166.5 340L158 370.5" stroke="black" stroke-width="2" stroke-linecap="round"/>
<path d="M104.087 181.536C102.892 183.984 100.552 185.712 97.9003 186.334C86.9286 188.904 91.9091 202.132 99.1031 222.869C100.165 225.931 97.6902 229.452 97.6558 232.693C97.64 234.187 98.4044 235.737 99.9961 236.874L109.996 242.874C115.996 245.874 131.796 245.374 134.996 243.374C138.996 241.041 147.096 235.474 147.496 231.874C147.744 229.641 147.877 224.212 147.942 219.099C147.994 215.033 151.967 212.117 155.947 212.953C165.923 215.048 179.516 216.079 186.496 209.874C195.222 202.118 196.898 184.96 181.497 184.379C180.513 184.342 179.56 184.655 178.651 185.032C175.22 186.452 170.055 186.812 162.492 184.667C161.832 184.48 161.229 184.171 160.668 183.776C147.358 174.41 113.824 161.587 104.087 181.536Z" fill="#FFC0CB" stroke="#FFC0CB"/>
<path d="M132.496 241.374C132.829 241.374 134.196 241.374 136.996 241.374C139.404 241.374 143.956 236.793 146.774 233.541C147.586 232.604 148.039 231.418 148.119 230.182L148.922 217.712C148.973 216.912 149.185 216.131 149.543 215.414L150.5 213.5" stroke="black" stroke-width="2" stroke-linecap="round"/>
<path d="M127.996 216.874C128.163 215.541 129.396 213.174 132.996 214.374" stroke="black" stroke-width="2" stroke-linecap="round"/>
<path d="M128 217L133 214.5" stroke="black" stroke-width="2" stroke-linecap="round"/>
<path d="M138.996 214.874C140.496 214.207 143.696 213.674 144.496 216.874" stroke="black" stroke-width="2" stroke-linecap="round"/>
<path d="M139 215L144.5 217" stroke="black" stroke-width="2" stroke-linecap="round"/>
<path d="M214.301 62.5973C202.801 65.5973 196.101 94.4973 217.301 104.097C224.635 106.097 241.701 107.197 251.301 95.5973C254.801 95.264 258.801 94.5973 261.801 89.0973C264.801 90.5973 273.401 91.8973 277.801 83.0973C288.801 83.0973 301.301 64.0973 279.301 56.0973C275.801 52.0973 265.901 45.0973 254.301 49.0973C243.301 44.0973 228.701 39.3973 214.301 62.5973Z" fill="#FFC0CB"/>
<path d="M217.301 104.097C224.635 106.097 241.701 107.197 251.301 95.5973C244.801 120.097 220.301 122.097 217.301 104.097Z" fill="#A1D5E5"/>
<path d="M227.301 54.123C229.34 53.9662 234.095 54.4587 237.648 57.5174C238.033 57.8485 238.598 57.8842 239.015 57.5942C243.314 54.6014 252.322 51.5308 259.451 59.7103C259.671 59.9623 259.999 60.1014 260.332 60.0743C266.966 59.5356 278.969 61.1099 277.801 71.623M216.301 75.123C217.635 76.2897 221.101 77.923 224.301 75.123C227.501 72.323 232.301 73.9563 234.301 75.123M227.301 96.623C228.584 97.2645 231.842 97.875 234.937 95.4264C235.172 95.2405 235.47 95.1528 235.767 95.1942C241.889 96.0497 253.081 94.4896 252.301 81.623" stroke="black" stroke-width="2" stroke-linecap="round" stroke-linejoin="round"/>
<path d="M326.5 81C326.5 124.63 291.13 160 247.5 160C203.87 160 168.5 124.63 168.5 81C168.5 37.3695 203.87 2 247.5 2C291.13 2 326.5 37.3695 326.5 81Z" stroke="white" stroke-width="4"/>
<path d="M224 187C230.333 186.833 245.5 181.5 243.5 161.5" stroke="white" stroke-width="3"/>
<path fill-rule="evenodd" clip-rule="evenodd" d="M692 527L670 445.391L544 444.606L523 527H546C550.833 504.833 561.5 458.5 574.5 458.5H640.5C657.5 458.5 670 527 670 527H692Z" fill="#E7D6A0"/>
<path d="M687.5 428H527C523.4 434.4 525.5 441.667 527 444.5L544 444.606L670 445.391L687.5 445.5C693.1 437.1 689.833 430.333 687.5 428Z" fill="#CCB465"/>
<path d="M663 395.5H649L639 352C653.167 338.667 686.006 314.295 705 316C744 319.5 751 337 739.5 355.5C728 374 702.5 368.5 688 371C676.4 373 666.5 388.167 663 395.5Z" fill="#CAEFDD"/>
<path d="M654 354.5C660.333 346.833 682.1 333.8 718.5 343" stroke="black"/>
<path d="M673.5 220.5C691 130 580.5 142.5 587.5 220.5L631.5 303.5L656 276L673.5 220.5Z" fill="#CAEFDD"/>
<path d="M620.5 205.5L617.5 265" stroke="black"/>
<path d="M646 196L630.5 290" stroke="black"/>
<path d="M709 237.5C670.6 244.7 638 274.833 626.5 289C626.833 332.167 645 366 645 366C659 324 727.5 318 740 289C751 267.5 747.4 230.3 709 237.5Z" fill="#A8DEC4"/>
<path d="M635.5 319C648.667 302.833 679.1 270.3 695.5 269.5" stroke="black"/>
<path d="M641 326.5C651.5 314.833 676.1 291.5 690.5 291.5" stroke="black"/>
<path d="M487.5 354.5C486.3 326.9 520.667 307.333 538 301H556L584 395.5H567C547.5 354.5 526.5 381.5 518 382.5C509.5 383.5 489 389 487.5 354.5Z" fill="#CAEFDD"/>
<path d="M560 341.5C551.833 337.833 531.4 334.9 515 352.5" stroke="black"/>
<path d="M548 185C564 191.5 660 267.5 650 394.5H569C568 373.5 563.5 346 546 319.5C528.5 293 491.8 248.5 495 214.5C498.2 180.5 532 178.5 548 185Z" fill="#8ED1B0"/>
<path d="M538 229C564.5 258.833 615.7 333.9 608.5 395.5" stroke="black"/>
<path d="M551 279.5C563.167 291.5 589.5 331.7 597.5 396.5" stroke="black"/>
<path d="M598.5 279.5C608 302.333 625.4 357.6 619 396" stroke="black"/>
<path d="M676.5 394H541.5V415.5C542.7 423.1 548.667 427 551.5 428H663.5C674.7 428.4 677.167 419.5 677 415L676.5 394Z" fill="#DFE9EE"/>
<path d="M652 403.5H657.5" stroke="black"/>
<path d="M643.5 411H650.5" stroke="black"/>
<path d="M653.5 417H660.5" stroke="black"/>
<path d="M632.5 423H639.5" stroke="black"/>
<path d="M426 525.5V505.5H403.5L373.5 522C372.3 523.6 373 526.667 373.5 528H422.5C424.9 528 425.833 526.333 426 525.5Z" fill="white"/>
<path d="M463 528C454.6 525.2 459.5 512.167 463 506H479L488 519C492 522.2 489.667 526.333 488 528H463Z" fill="white"/>
<path d="M321.162 280.705L304.662 269.205C303.162 268.705 300.362 268.805 301.162 273.205L308.662 280.705H285.662C283.828 281.372 281.262 283.205 285.662 285.205L295.662 287.205L282.662 290.205C280.828 291.372 278.462 294.005 283.662 295.205H296.662L285.662 300.205C283.995 301.372 282.062 303.705 287.662 303.705L300.662 301.705L291.662 307.705C290.995 309.039 290.562 311.405 294.162 310.205L326.662 298.205L324.662 280.705H321.162Z" fill="#D9D9D9"/>
<path d="M309 281.5C308.5 283.833 309.2 289.7 316 294.5M303.5 285.5L303 297.5C303.167 298.667 303.9 301.3 305.5 302.5" stroke="black"/>
<path d="M442.5 218.5L421.5 190.5L485 192.5L442.5 218.5Z" fill="#A1D5E5"/>
<path d="M422.378 127.895C425.7 121.2 432.242 119.294 437.718 119.725C442.556 120.106 448.202 120.107 452.532 117.915C471.775 108.173 481.173 127.519 482 130C483.777 135.332 484.37 146.588 484.129 154.291C484.073 156.068 484.378 157.868 485.392 159.328C490.747 167.035 501.814 172.526 504 182C506.008 190.701 500.69 197.908 496.361 201.691C494.897 202.969 492.965 203.5 491.021 203.5H408.038C405.154 203.5 402.368 202.284 400.746 199.9C397.458 195.064 393.96 187.85 395.5 182C398 172.5 415 162 419 152.5C421.733 146.009 421.986 137.355 421.69 132.268C421.603 130.77 421.712 129.239 422.378 127.895Z" fill="#A1D5E5"/>
<path d="M429.5 146.5C427 159 424.3 179.1 445.5 179.5M433 154C434.333 152 437.6 149.2 440 154M442.5 154C443.833 152 447.1 149.2 449.5 154" stroke="black"/>
<path d="M443 208L434.5 196L405 429L403 505.5L435.5 507C438.901 478.955 445.087 425.32 445.059 415.546C444.992 415.026 444.925 414.511 444.858 414C444.992 414.036 445.057 414.574 445.059 415.546C448.597 442.918 452.377 482.43 454.5 507H490V430.5L463.5 196L443 208Z" fill="#FFC0CB"/>
<path d="M429.5 320H459M429.5 328.5H459" stroke="black" stroke-width="3"/>
<path d="M445 413.5C445.333 416.333 446 422.1 446 422.5" stroke="black"/>
<path d="M445 414C444.167 403.833 441.8 383.3 439 382.5" stroke="black"/>
<path d="M460 198.5L443 208" stroke="black"/>
<path d="M481.409 197.434L461.43 183.031C460.8 182.577 459.916 182.983 459.849 183.757L447.508 327.403C447.503 327.468 447.504 327.532 447.51 327.597L458.895 432.534C458.954 433.072 459.429 433.466 459.969 433.423L502.06 430.075C502.588 430.033 502.992 429.587 502.981 429.057L501.006 332.808C501.002 332.607 501.058 332.41 501.168 332.242L513.943 312.588C513.981 312.529 514.024 312.476 514.073 312.427C523.684 302.691 525.861 275.84 525.993 274.09C525.998 274.028 525.998 273.984 525.991 273.922C525.756 272.004 521.016 234.982 502.571 212.088C502.524 212.029 502.48 211.984 502.42 211.938C501.227 211.004 486.946 199.873 481.598 197.542C481.529 197.512 481.469 197.478 481.409 197.434Z" fill="white"/>
<path d="M421.173 195.877L436.885 184.654C437.553 184.176 438.48 184.663 438.466 185.485L436.007 328.576C436.003 328.847 436.068 329.119 436.085 329.389C436.424 335.004 426.492 397.512 421.153 430.068C421.066 430.599 420.577 430.946 420.044 430.879L386.476 426.624C385.934 426.555 385.548 426.065 385.608 425.522L402.197 274.794C402.325 273.637 400.198 272.993 399.549 273.96C391.156 286.48 375.16 295.273 367.104 298.459C367.033 298.487 366.962 298.506 366.885 298.517L325.996 304.428C325.684 304.473 325.394 304.356 325.295 304.056C324.365 301.25 322.236 286.6 321.117 278.368C321.05 277.871 321.362 277.402 321.846 277.27L366.57 265.117C366.844 265.042 367.073 264.856 367.201 264.603L392 215.5C399.522 203.227 414.196 197.452 420.798 196.042C420.935 196.013 421.059 195.958 421.173 195.877Z" fill="white"/>
<path d="M423.5 199L426.5 217L420 225L430 247.5M477 203L468 216L474.5 227.5L459 249M406.5 237.5L392.5 357M491.5 251.5V289.5M491.5 289.5L498.5 278.5M491.5 289.5L474 325.5M474 325.5L468 322M474 325.5L496 342.5" stroke="black" stroke-width="2"/>
</svg>
