<svg width="500" height="500" viewBox="0 0 500 500" fill="none" xmlns="http://www.w3.org/2000/svg">
<circle cx="250" cy="250" r="230" fill="#4CDDEB" fill-opacity="0.6"/>
<circle cx="249.5" cy="249.5" r="210" fill="url(#paint0_radial_1_395)" stroke="white" stroke-width="5"/>
<path d="M250 54.0236C232.105 53.5782 190.053 59.2793 165 85.647V161.811C165 182.299 178.421 210.805 200.342 224.612C222.263 238.42 250 250 250 250V54.0236Z" fill="white"/>
<path d="M250 54.0236C267.895 53.5782 309.947 59.2793 335 85.647V161.811C335 182.299 321.579 210.805 299.658 224.612C277.737 238.42 250 250 250 250V54.0236Z" fill="white"/>
<path d="M249.5 173.819V192.217C249.5 192.738 249.364 193.259 249.09 193.702C242.43 204.478 231.543 201.135 225.815 197.45C225.01 196.932 224.017 196.758 223.091 197.003C206.025 201.527 203.305 190.029 204.216 182.061C204.355 180.847 203.848 179.625 202.855 178.913C185.161 166.231 190.6 153.567 197.866 146.903C199.535 145.373 199.514 142.494 197.737 141.091C187.696 133.158 193.874 127.572 199.92 124.674C201.064 124.126 201.82 122.964 201.819 121.695C201.794 98.9004 215.444 97.7932 225.43 100.75C227.759 101.44 230.32 99.4922 230.617 97.0811C232.241 83.9104 249.5 88.3669 249.5 90.3519V173.819ZM249.5 173.819C243.415 169.942 229.909 165.764 224.566 180.067" stroke="#FFC0CB" stroke-width="5"/>
<path d="M225.012 115.347C227.238 117.43 235.252 126.952 227.238 131.862M227.238 131.862C219.145 136.82 215.661 133.201 212.99 129.184M227.238 131.862C229.761 133.35 232.136 139.093 230.355 144.806" stroke="#FFC0CB" stroke-width="5"/>
<path d="M249.5 123.828V173.819V192.217C249.5 192.738 249.636 193.259 249.91 193.702C256.57 204.478 267.457 201.135 273.185 197.45C273.99 196.932 274.983 196.758 275.909 197.003C292.975 201.527 295.695 190.029 294.784 182.061C294.645 180.847 295.152 179.625 296.145 178.913C313.839 166.231 308.4 153.567 301.134 146.903C299.465 145.373 299.486 142.494 301.263 141.091C311.304 133.158 305.126 127.572 299.08 124.674C297.936 124.126 297.18 122.964 297.181 121.695C297.206 98.9004 283.556 97.7932 273.57 100.75C271.241 101.44 268.68 99.4922 268.383 97.0811C266.759 83.9104 249.5 88.3669 249.5 90.3519V123.828ZM249.5 123.828C252.617 136.772 272.207 134.987 272.207 120.703M260.631 159.089C268.687 157.205 273.979 157.942 276.66 160.732M276.66 175.604C279.411 168.831 279.469 163.655 276.66 160.732M276.66 160.732C281.528 156.305 284.258 157.871 289.127 160.732" stroke="#FFC0CB" stroke-width="5"/>
<path d="M129.463 226.587L137.635 276.307C137.733 276.904 138.009 277.457 138.427 277.894L184.638 326.215C185.106 326.704 185.395 327.338 185.458 328.012L187.332 348.233C187.475 349.776 188.769 350.956 190.319 350.956H237.882C239.866 350.956 241.304 349.064 240.772 347.152L235.362 327.696C235.229 327.22 235.22 326.709 235.322 326.226C241.464 297.237 224.379 279.775 218.457 273.004C218.324 272.851 218.214 272.693 218.115 272.516L204.171 247.704C204.081 247.544 203.976 247.39 203.855 247.252C197.171 239.64 182.59 244.349 184.406 255.102C184.445 255.336 184.522 255.568 184.622 255.783L197.133 282.732C197.564 283.659 196.49 284.559 195.653 283.972L160.938 259.657C160.344 259.241 159.921 258.625 159.747 257.921L149.963 218.402C149.849 217.943 149.617 217.503 149.305 217.148C132.949 198.557 127.948 209.724 128 217.49C128.001 217.634 128.015 217.775 128.038 217.918L129.463 226.587ZM129.463 226.587C132.891 232.318 138.316 228.942 135.114 220.769" stroke="#EEEEEE" stroke-width="7"/>
<path d="M371.092 226.587L362.921 276.307C362.823 276.904 362.547 277.457 362.129 277.894L315.917 326.215C315.449 326.704 315.16 327.338 315.098 328.012L313.224 348.233C313.081 349.776 311.786 350.956 310.236 350.956H262.674C260.689 350.956 259.252 349.064 259.783 347.152L265.194 327.696C265.326 327.22 265.335 326.709 265.233 326.226C259.091 297.237 276.177 279.775 282.098 273.004C282.232 272.851 282.341 272.693 282.441 272.516L296.385 247.704C296.474 247.544 296.58 247.39 296.701 247.252C303.385 239.64 317.965 244.349 316.15 255.102C316.11 255.336 316.033 255.568 315.933 255.783L303.422 282.732C302.992 283.659 304.065 284.559 304.903 283.972L339.618 259.657C340.211 259.241 340.635 258.625 340.809 257.921L350.592 218.402C350.706 217.943 350.938 217.503 351.25 217.148C367.607 198.557 372.608 209.724 372.555 217.49C372.554 217.634 372.541 217.775 372.517 217.918L371.092 226.587ZM371.092 226.587C367.664 232.318 362.24 228.942 365.441 220.769" stroke="#EEEEEE" stroke-width="7"/>
<path d="M196.048 420H182.256V371.167H196.048V390.5H206.756V371.167H220.548V420H206.756V400.083H196.048V420ZM255.621 420H226.079V371.167H254.996L254.163 381L239.871 380.583V390H251.121V399.75L239.871 398.917V410L255.621 409.583V420ZM283.363 420L281.488 412.208H269.654L268.071 420H255.821L268.529 374.542L267.529 371.167H284.738L298.654 420H283.363ZM275.029 385.5L271.363 403.708H279.446L275.029 385.5ZM300.298 420V371.167H314.09V408.833H326.506V420H300.298Z" fill="white"/>
<defs>
<radialGradient id="paint0_radial_1_395" cx="0" cy="0" r="1" gradientUnits="userSpaceOnUse" gradientTransform="translate(249.5 249.5) rotate(90) scale(392.889)">
<stop stop-color="#4CDDEB"/>
<stop offset="1" stop-color="#FFC0CB"/>
</radialGradient>
</defs>
</svg>
